HIERARCHY
ROOT Hips
{
  OFFSET 52.6912 84.0934 6.05162
  CHANNELS 6 Xposition Yposition Zposition Zrotation Xrotation Yrotation
  JOINT spine
  {
    OFFSET 0 5.95438 0.342407
    CHANNELS 3 Zrotation Xrotation Yrotation
    JOINT spine1
    {
      OFFSET 0 8.85602 0
      CHANNELS 3 Zrotation Xrotation Yrotation
      JOINT spine2
      {
        OFFSET 0 8.48567 0
        CHANNELS 3 Zrotation Xrotation Yrotation
        JOINT Neck
        {
          OFFSET 0 21.7863 1.0387
          CHANNELS 3 Zrotation Xrotation Yrotation
          JOINT Head
          {
            OFFSET 0 6.5822 0
            CHANNELS 3 Zrotation Xrotation Yrotation
            End Site
            {
              OFFSET 0 15.9326 -5.25436
            }
          }
        }
        JOINT RightShoulder
        {
          OFFSET -3.57307 9.16386 -0.497525
          CHANNELS 3 Zrotation Xrotation Yrotation
          JOINT RightArm
          {
            OFFSET 0 12.0192 0
            CHANNELS 3 Zrotation Xrotation Yrotation
            JOINT RightArmRoll
            {
              OFFSET 0 6.06755 0
              CHANNELS 3 Zrotation Xrotation Yrotation
              JOINT RightForeArm
              {
                OFFSET 0 17.6726 0
                CHANNELS 3 Zrotation Xrotation Yrotation
                JOINT RightForeArmRoll
                {
                  OFFSET 0 6.80872 0
                  CHANNELS 3 Zrotation Xrotation Yrotation
                  JOINT RightHand
                  {
                    OFFSET 0 13.6636 0
                    CHANNELS 3 Zrotation Xrotation Yrotation
                    End Site
                    {
                      OFFSET 0 0 0
                    }
                  }
                }
              }
            }
          }
        }
        JOINT LeftShoulder
        {
          OFFSET 3.57307 9.16386 -0.497525
          CHANNELS 3 Zrotation Xrotation Yrotation
          JOINT LeftArm
          {
            OFFSET 0 12.0192 0
            CHANNELS 3 Zrotation Xrotation Yrotation
            JOINT LeftArmRoll
            {
              OFFSET 0 6.06754 0
              CHANNELS 3 Zrotation Xrotation Yrotation
              JOINT LeftForeArm
              {
                OFFSET 0 17.6726 0
                CHANNELS 3 Zrotation Xrotation Yrotation
                JOINT LeftForeArmRoll
                {
                  OFFSET 0 6.80872 0
                  CHANNELS 3 Zrotation Xrotation Yrotation
                  JOINT LeftHand
                  {
                    OFFSET 0 13.6636 0
                    CHANNELS 3 Zrotation Xrotation Yrotation
                    End Site
                    {
                      OFFSET 0 0 0
                    }
                  }
                }
              }
            }
          }
        }
      }
    }
  }
  JOINT RightUpLeg
  {
    OFFSET -5.27774 -0.967797 -0.811858
    CHANNELS 3 Zrotation Xrotation Yrotation
    JOINT RightUpLegRoll
    {
      OFFSET 0 16.0214 0
      CHANNELS 3 Zrotation Xrotation Yrotation
      JOINT RightLeg
      {
        OFFSET 0 -19.8401 0
        CHANNELS 3 Zrotation Xrotation Yrotation
        JOINT RightLegRoll
        {
          OFFSET 0 19.905 0
          CHANNELS 3 Zrotation Xrotation Yrotation
          JOINT RightFoot
          {
            OFFSET 0 16.5675 0
            CHANNELS 3 Zrotation Xrotation Yrotation
            JOINT RightToeBase
            {
              OFFSET 0 13.8496 0
              CHANNELS 3 Zrotation Xrotation Yrotation
              End Site
              {
                OFFSET 0.00587034 6.70727 -0.773117
              }
            }
          }
        }
      }
    }
  }
  JOINT LeftUpLeg
  {
    OFFSET 5.27774 -0.967797 -0.811858
    CHANNELS 3 Zrotation Xrotation Yrotation
    JOINT LeftUpLegRoll
    {
      OFFSET 0 16.0215 0
      CHANNELS 3 Zrotation Xrotation Yrotation
      JOINT LeftLeg
      {
        OFFSET 0 19.84 0
        CHANNELS 3 Zrotation Xrotation Yrotation
        JOINT LeftLegRoll
        {
          OFFSET 0 20.089 0
          CHANNELS 3 Zrotation Xrotation Yrotation
          JOINT LeftFoot
          {
            OFFSET 0 16.3835 0
            CHANNELS 3 Zrotation Xrotation Yrotation
            JOINT LeftToeBase
            {
              OFFSET 0 13.8496 0
              CHANNELS 3 Zrotation Xrotation Yrotation
              End Site
              {
                OFFSET -0.0263083 6.70727 -0.773117
              }
            }
          }
        }
      }
    }
  }
}
MOTION
Frames: 9
Frame Time: 0.00208333
52.5884 84.3393 3.92503 7.12831 1.90693 72.568 -0.536296 -0.776256 0.0523574 -1.06164 2.44932 0.16861 -1.06477 4.09424 0.189462 -18.0806 3.17476 0.408437 21.0801 2.30062 -2.98808 58.4662 3.51414 2.31559 143.417 32.7192 -61.2211 -3.18055e-015 -2.62396e-014 3.18055e-015 -4.39373 39.2655 -0.72997 -2.80921e-006 7.10889e-006 -3 8.03003 -4.95096 0.697573 -74.6837 -7.90992 5.31727 -81.1974 43.4499 -8.77114 3.67558e-006 1.44309e-005 1.29135e-005 3.64362 -0.0353418 1.99299 -2.99074e-006 -1.06443e-005 3.01161 -8.03009 -4.95139 -0.697598 170.648 1.08997 6.96444 180 7.01548e-015 178.928 178.044 14.2829 179.737 4.06695e-007 2.86343e-007 0.282318 -20.4963 70.0216 21.3793 8.1365 25.2327 -3.48773 177.018 0.47578 1.70952 4.54188e-006 -4.6773e-006 -1.01236 -3.10379 -6.72032 -0.00120108 6.74829e-008 -6.68015e-007 -0.0570246 18.1336 67.2425 -18.9335 -8.13648 25.2326 3.48773 
52.5935 84.3255 3.91405 7.15076 1.92989 72.6207 -0.537099 -0.780348 0.0523076 -1.06407 2.44114 0.168558 -1.06719 4.08606 0.189479 -18.0615 3.29201 0.420754 20.9992 2.23732 -2.98229 58.5444 3.49567 2.29128 143.042 32.8466 -60.8704 -3.18055e-015 -1.98785e-014 6.36111e-015 -4.40561 39.5835 -0.714401 -2.80921e-006 7.10889e-006 -3 8.03003 -4.95096 0.697573 -74.6677 -7.92328 5.32294 -81.4368 43.324 -8.58993 3.67558e-006 1.44309e-005 1.29135e-005 3.6436 -0.0353418 1.99299 -2.99074e-006 -1.06443e-005 3.01161 -8.03009 -4.95139 -0.697598 170.612 1.05073 6.99189 180 7.01548e-015 178.929 178.028 14.2842 179.74 4.06695e-007 2.86343e-007 0.282684 -20.5134 70.0382 21.3972 8.1365 25.2327 -3.48773 177.002 0.447898 1.71265 4.54188e-006 -4.6773e-006 -1.01236 -3.10874 -6.71603 -0.00231002 6.74829e-008 -6.68015e-007 -0.0570275 18.135 67.2443 -18.9346 -8.13648 25.2326 3.48773 
52.6106 84.3323 3.92307 7.17349 1.95246 72.6725 -0.537895 -0.784411 0.0522583 -1.06651 2.43301 0.168508 -1.06963 4.07792 0.189499 -18.0441 3.41132 0.433256 20.9206 2.17165 -2.97656 58.6238 3.4779 2.26717 142.666 32.97 -60.5175 -3.18055e-015 -1.74931e-014 3.18055e-015 -4.41773 39.9013 -0.698742 -2.80921e-006 7.10889e-006 -3 8.03003 -4.95096 0.697573 -74.6524 -7.93711 5.32884 -81.6728 43.1977 -8.41133 3.67558e-006 1.44309e-005 1.29135e-005 3.64358 -0.0353418 1.99299 -2.99074e-006 -1.06443e-005 3.01161 -8.03009 -4.95139 -0.697598 170.577 1.01175 7.01895 180 7.01548e-015 178.929 178.013 14.2863 179.743 4.06695e-007 2.86343e-007 0.283125 -20.5309 70.0552 21.4154 8.1365 25.2327 -3.48773 176.985 0.419544 1.71556 4.54188e-006 -4.6773e-006 -1.01237 -3.11394 -6.71191 -0.00346669 6.74829e-008 -6.68015e-007 -0.0570318 18.1366 67.2464 -18.936 -8.13648 25.2326 3.48773 
52.6042 84.3239 3.9133 7.1964 1.97471 72.7237 -0.538688 -0.788456 0.0522092 -1.06896 2.42492 0.16846 -1.07209 4.06983 0.189521 -18.0281 3.53207 0.445889 20.8436 2.10431 -2.97086 58.704 3.46061 2.2432 142.289 33.0899 -60.1624 -3.18055e-015 7.95139e-016 9.54166e-015 -4.43011 40.2189 -0.682981 -2.80921e-006 7.10889e-006 -3 8.03003 -4.95096 0.697573 -74.6377 -7.95125 5.3349 -81.906 43.071 -8.23479 3.67558e-006 1.44309e-005 1.29135e-005 3.64356 -0.0353418 1.99299 -2.99074e-006 -1.06443e-005 3.01161 -8.03009 -4.95139 -0.697598 170.541 0.972955 7.04571 180 7.01549e-015 178.93 177.999 14.289 179.746 4.06695e-007 2.86343e-007 0.283619 -20.5488 70.0723 21.434 8.1365 25.2327 -3.48773 176.968 0.39086 1.7183 4.54188e-006 -4.6773e-006 -1.01237 -3.11929 -6.70792 -0.00465676 6.74829e-008 -6.68015e-007 -0.0570371 18.1385 67.2488 -18.9375 -8.13648 25.2326 3.48773 
52.619 84.3372 3.91107 7.21939 1.99672 72.7746 -0.539479 -0.79249 0.0521603 -1.07143 2.41685 0.168413 -1.07455 4.06176 0.189544 -18.0128 3.65365 0.458599 20.7675 2.03603 -2.96519 58.7848 3.4436 2.21931 141.91 33.2068 -59.8053 -3.18055e-015 7.95139e-016 3.18055e-015 -4.44273 40.5364 -0.667105 -2.80921e-006 7.10889e-006 -3 8.03003 -4.95096 0.697573 -74.6233 -7.96558 5.34105 -82.1371 42.944 -8.05975 3.67558e-006 1.44309e-005 1.29135e-005 3.64353 -0.0353418 1.99299 -2.99074e-006 -1.06443e-005 3.01161 -8.03009 -4.95139 -0.697598 170.506 0.93426 7.07232 180 7.01549e-015 178.931 177.985 14.292 179.749 4.06695e-007 2.86343e-007 0.284143 -20.5668 70.0896 21.4528 8.1365 25.2327 -3.48773 176.952 0.361987 1.72095 4.54188e-006 -4.6773e-006 -1.01238 -3.12475 -6.704 -0.00586591 6.74829e-008 -6.68015e-007 -0.0570429 18.1404 67.2512 -18.9392 -8.13648 25.2326 3.48773 
52.6696 84.3363 3.96275 7.24238 2.01856 72.8254 -0.540269 -0.796521 0.0521115 -1.07389 2.40879 0.168366 -1.07701 4.05369 0.189567 -17.9977 3.77544 0.471333 20.6917 1.9675 -2.95953 58.8656 3.42666 2.19544 141.53 33.3213 -59.4465 2.38351e-030 -1.43125e-014 9.54166e-015 -4.45558 40.8539 -0.651102 -2.80921e-006 7.10889e-006 -3 8.03003 -4.95096 0.697573 -74.609 -7.97996 5.34723 -82.367 42.8167 -7.88565 3.67558e-006 1.44309e-005 1.29135e-005 3.6435 -0.0353418 1.99299 -2.99074e-006 -1.06443e-005 3.01161 -8.03009 -4.95139 -0.697598 170.47 0.895594 7.09889 180 7.01549e-015 178.932 177.971 14.295 179.752 4.06695e-007 2.86343e-007 0.284674 -20.5848 70.107 21.4716 8.1365 25.2327 -3.48773 176.935 0.333067 1.72358 4.54188e-006 -4.6773e-006 -1.01239 -3.13023 -6.70011 -0.00707982 6.74829e-008 -6.68015e-007 -0.0570489 18.1424 67.2538 -18.9409 -8.13648 25.2326 3.48773 
52.6729 84.3253 3.95336 7.26525 2.04028 72.8764 -0.541061 -0.800557 0.0520626 -1.07636 2.40071 0.168319 -1.07947 4.04562 0.18959 -17.9823 3.89681 0.484037 20.6154 1.89945 -2.95386 58.9462 3.40958 2.17153 141.15 33.4341 -59.0859 -6.36111e-015 -9.54166e-015 6.36111e-015 -4.46866 41.1714 -0.634959 -2.80921e-006 7.10889e-006 -3 8.03003 -4.95096 0.697573 -74.5946 -7.99425 5.35336 -82.5962 42.689 -7.71195 3.67558e-006 1.44309e-005 1.29135e-005 3.64347 -0.0353418 1.99299 -2.99074e-006 -1.06443e-005 3.01161 -8.03009 -4.95139 -0.697598 170.435 0.856882 7.12554 180 7.01549e-015 178.933 177.957 14.2978 179.755 4.06695e-007 2.86343e-007 0.285191 -20.6029 70.1242 21.4905 8.1365 25.2327 -3.48773 176.919 0.304241 1.72625 4.54188e-006 -4.6773e-006 -1.0124 -3.13566 -6.69617 -0.00828416 6.74829e-008 -6.68015e-007 -0.0570547 18.1443 67.2562 -18.9425 -8.13648 25.2326 3.48773 
52.6787 84.3287 3.93925 7.28792 2.06196 72.9279 -0.541855 -0.804608 0.0520134 -1.07881 2.39261 0.16827 -1.08192 4.03751 0.189611 -17.9662 4.01715 0.496656 20.538 1.83259 -2.94817 59.0261 3.39215 2.14753 140.769 33.5456 -58.7237 -4.77083e-015 -6.36111e-015 -0 -4.48197 41.4891 -0.618661 -2.80921e-006 7.10889e-006 -3 8.03003 -4.95096 0.697573 -74.5797 -8.0083 5.35938 -82.8256 42.5611 -7.53809 3.67558e-006 1.44309e-005 1.29135e-005 3.64345 -0.0353419 1.99299 -2.99074e-006 -1.06443e-005 3.01161 -8.03009 -4.95139 -0.697598 170.399 0.81805 7.1524 180 7.01549e-015 178.934 177.942 14.3004 179.758 4.06695e-007 2.86343e-007 0.28567 -20.6207 70.1413 21.5091 8.1365 25.2327 -3.48773 176.902 0.275652 1.72905 4.54188e-006 -4.6773e-006 -1.0124 -3.14097 -6.69214 -0.0094646 6.74829e-008 -6.68015e-007 -0.0570597 18.1461 67.2585 -18.944 -8.13648 25.2326 3.48773 
52.6965 84.3268 3.94983 7.31028 2.08366 72.9801 -0.542653 -0.80868 0.051964 -1.08124 2.38447 0.16822 -1.08436 4.02936 0.18963 -17.9486 4.13584 0.509137 20.4588 1.76762 -2.94245 59.1051 3.37416 2.12337 140.387 33.6567 -58.3602 -6.36111e-015 3.97569e-015 9.54166e-015 -4.49549 41.8069 -0.602196 -2.80921e-006 7.10889e-006 -3 8.03003 -4.95096 0.697573 -74.5642 -8.02198 5.36521 -83.0557 42.4328 -7.36354 3.67558e-006 1.44309e-005 1.29135e-005 3.64343 -0.0353419 1.99299 -2.99074e-006 -1.06443e-005 3.01161 -8.03009 -4.95139 -0.697598 170.364 0.779022 7.17959 180 7.0155e-015 178.934 177.927 14.3022 179.761 4.06695e-007 2.86343e-007 0.286088 -20.6383 70.1581 21.5274 8.1365 25.2327 -3.48773 176.885 0.24744 1.73202 4.54188e-006 -4.6773e-006 -1.01241 -3.14609 -6.68797 -0.0106068 6.74829e-008 -6.68015e-007 -0.0570635 18.1476 67.2605 -18.9453 -8.13648 25.2326 3.48773 
